# xmcd
#
# Track frame offsets: 
#        255
#        55145
#        111461
#        150535
#        177684
#        210173
#        230767
#        246310
#
# Disc length: 3579 seconds
#
# Revision: 0
# Processed by: cddbd v1.5.2PL0 Copyright (c) Steve Scherf et al.
# Submitted via: ExactAudioCopy v0.99pb5
#
DISCID=6f0df808
DTITLE=Chain - Live Chain
DYEAR=1970
DGENRE=
TTITLE0=The World Is Waiting
TTITLE1=Black And White
TTITLE2=Pilgrimage
TTITLE3=Gertrude Street Blues
TTITLE4=Chaser
TTITLE5=On The Road Again (Live)
TTITLE6=Show Me Home (Single A-Side)
TTITLE7=Mr Time (Single B-Side)
EXTD=
EXTT0=
EXTT1=
EXTT2=
EXTT3=
EXTT4=
EXTT5=
EXTT6=
EXTT7=
PLAYORDER=
